<svg width="248" height="88" viewBox="0 0 248 88" fill="none" xmlns="http://www.w3.org/2000/svg">
<path d="M23.85 29.35H9.95L7.65 36H0.3L12.85 1.05H21L33.55 36H26.15L23.85 29.35ZM21.95 23.75L16.9 9.15L11.85 23.75H21.95ZM61.991 1.1V6.75H52.691V36H45.691V6.75H36.391V1.1H61.991ZM65.3984 18.5C65.3984 15.0667 66.1651 12 67.6984 9.3C69.2651 6.56666 71.3818 4.45 74.0484 2.95C76.7484 1.41667 79.7651 0.649999 83.0984 0.649999C86.9984 0.649999 90.4151 1.65 93.3484 3.65C96.2818 5.65 98.3318 8.41667 99.4984 11.95H91.4484C90.6484 10.2833 89.5151 9.03333 88.0484 8.2C86.6151 7.36666 84.9484 6.95 83.0484 6.95C81.0151 6.95 79.1984 7.43333 77.5984 8.4C76.0318 9.33333 74.7984 10.6667 73.8984 12.4C73.0318 14.1333 72.5984 16.1667 72.5984 18.5C72.5984 20.8 73.0318 22.8333 73.8984 24.6C74.7984 26.3333 76.0318 27.6833 77.5984 28.65C79.1984 29.5833 81.0151 30.05 83.0484 30.05C84.9484 30.05 86.6151 29.6333 88.0484 28.8C89.5151 27.9333 90.6484 26.6667 91.4484 25H99.4984C98.3318 28.5667 96.2818 31.35 93.3484 33.35C90.4484 35.3167 87.0318 36.3 83.0984 36.3C79.7651 36.3 76.7484 35.55 74.0484 34.05C71.3818 32.5167 69.2651 30.4 67.6984 27.7C66.1651 25 65.3984 21.9333 65.3984 18.5Z" fill="#0138E6"/>
<path d="M183.718 6.75V15.5H195.468V21.05H183.718V30.3H196.968V36H176.718V1.05H196.968V6.75H183.718ZM23.85 80.35H9.95L7.65 87H0.3L12.85 52.05H21L33.55 87H26.15L23.85 80.35ZM21.95 74.75L16.9 60.15L11.85 74.75H21.95ZM36.541 69.5C36.541 66.0667 37.3077 63 38.841 60.3C40.4077 57.5667 42.5243 55.45 45.191 53.95C47.891 52.4167 50.9077 51.65 54.241 51.65C58.141 51.65 61.5577 52.65 64.491 54.65C67.4244 56.65 69.4744 59.4167 70.641 62.95H62.591C61.791 61.2833 60.6577 60.0333 59.191 59.2C57.7577 58.3667 56.091 57.95 54.191 57.95C52.1577 57.95 50.341 58.4333 48.741 59.4C47.1743 60.3333 45.941 61.6667 45.041 63.4C44.1743 65.1333 43.741 67.1667 43.741 69.5C43.741 71.8 44.1743 73.8333 45.041 75.6C45.941 77.3333 47.1743 78.6833 48.741 79.65C50.341 80.5833 52.1577 81.05 54.191 81.05C56.091 81.05 57.7577 80.6333 59.191 79.8C60.6577 78.9333 61.791 77.6667 62.591 76H70.641C69.4744 79.5667 67.4244 82.35 64.491 84.35C61.591 86.3167 58.1744 87.3 54.241 87.3C50.9077 87.3 47.891 86.55 45.191 85.05C42.5243 83.5167 40.4077 81.4 38.841 78.7C37.3077 76 36.541 72.9333 36.541 69.5ZM98.0199 80.35H84.1199L81.8199 87H74.4699L87.0199 52.05H95.1699L107.72 87H100.32L98.0199 80.35ZM96.1199 74.75L91.0699 60.15L86.0199 74.75H96.1199ZM124.611 52.1C128.278 52.1 131.494 52.8167 134.261 54.25C137.061 55.6833 139.211 57.7333 140.711 60.4C142.244 63.0333 143.011 66.1 143.011 69.6C143.011 73.1 142.244 76.1667 140.711 78.8C139.211 81.4 137.061 83.4167 134.261 84.85C131.494 86.2833 128.278 87 124.611 87H112.411V52.1H124.611ZM124.361 81.05C128.028 81.05 130.861 80.05 132.861 78.05C134.861 76.05 135.861 73.2333 135.861 69.6C135.861 65.9667 134.861 63.1333 132.861 61.1C130.861 59.0333 128.028 58 124.361 58H119.411V81.05H124.361ZM155.251 57.75V66.5H167.001V72.05H155.251V81.3H168.501V87H148.251V52.05H168.501V57.75H155.251ZM212.912 52.1V87H205.912V64.3L196.562 87H191.262L181.862 64.3V87H174.862V52.1H182.812L193.912 78.05L205.012 52.1H212.912ZM247.583 52.1L235.783 74.85V87H228.783V74.85L216.933 52.1H224.833L232.333 68.05L239.783 52.1H247.583Z" fill="#47D0F2"/>
<path d="M129.441 36.35C127.008 36.35 124.808 35.9333 122.841 35.1C120.908 34.2667 119.375 33.0667 118.241 31.5C117.108 29.9333 116.525 28.0833 116.491 25.95H123.991C124.091 27.3833 124.591 28.5167 125.491 29.35C126.425 30.1833 127.691 30.6 129.291 30.6C130.925 30.6 132.208 30.2167 133.141 29.45C134.075 28.65 134.541 27.6167 134.541 26.35C134.541 25.3167 134.225 24.4667 133.591 23.8C132.958 23.1333 132.158 22.6167 131.191 22.25C130.258 21.85 128.958 21.4167 127.291 20.95C125.025 20.2833 123.175 19.6333 121.741 19C120.341 18.3333 119.125 17.35 118.091 16.05C117.091 14.7167 116.591 12.95 116.591 10.75C116.591 8.68333 117.108 6.88333 118.141 5.35C119.175 3.81666 120.625 2.65 122.491 1.85C124.358 1.01667 126.491 0.6 128.891 0.6C132.491 0.6 135.408 1.48333 137.641 3.25C139.908 4.98333 141.158 7.41667 141.391 10.55H133.691C133.625 9.35 133.108 8.36667 132.141 7.6C131.208 6.8 129.958 6.4 128.391 6.4C127.025 6.4 125.925 6.75 125.091 7.45C124.291 8.15 123.891 9.16667 123.891 10.5C123.891 11.4333 124.191 12.2167 124.791 12.85C125.425 13.45 126.191 13.95 127.091 14.35C128.025 14.7167 129.325 15.15 130.991 15.65C133.258 16.3167 135.108 16.9833 136.541 17.65C137.975 18.3167 139.208 19.3167 140.241 20.65C141.275 21.9833 141.791 23.7333 141.791 25.9C141.791 27.7667 141.308 29.5 140.341 31.1C139.375 32.7 137.958 33.9833 136.091 34.95C134.225 35.8833 132.008 36.35 129.441 36.35Z" fill="#F04F08"/>
<path d="M171.61 1.1V6.75H162.31V36H155.31V6.75H146.01V1.1H171.61Z" fill="#78C637"/>
<path d="M241.379 1.1V36H234.379V13.3L225.029 36H219.729L210.329 13.3V36H203.329V1.1H211.279L222.379 27.05L233.479 1.1H241.379Z" fill="#FEBC1A"/>
</svg>
