<svg width="172" height="53" viewBox="0 0 172 53" fill="none" xmlns="http://www.w3.org/2000/svg">
<path d="M59.9897 18.3228H58.0207L56.1495 14.0889H50.6133L48.7747 18.3228H46.8057L52.5139 5.16856H54.2905L59.9897 18.3228ZM55.4539 12.3988L53.4111 7.59291L51.3446 12.3988H55.4539ZM67.7907 6.84091H62.6037V10.8656H67.5924V12.5206H62.6037V18.3224H60.8095V5.16817H67.7907V6.84091ZM78.4225 18.3228H76.1428L71.4 12.0648H73.0018C73.9876 12.0648 74.7901 11.8792 75.4118 11.5101C76.1609 11.0628 76.534 10.3894 76.534 9.48601C76.534 8.6585 76.1876 7.99626 75.4979 7.50276C74.8761 7.06127 74.1243 6.84091 73.2476 6.84091H70.9385V18.3228H69.1443V5.16856H72.8423C74.9205 5.16856 76.4068 5.65358 77.3039 6.62325C77.9402 7.3086 78.2807 8.20892 78.3282 9.3269C78.3699 10.2939 78.056 11.2084 77.3926 12.071C76.7296 12.9336 75.8679 13.4271 74.805 13.5492L78.4229 18.3232L78.4225 18.3228ZM81.4069 18.3228H79.6126V5.16856H81.4069V18.3228ZM96.2186 14.5042C94.6494 17.1902 92.5477 18.532 89.9125 18.532C88.068 18.532 86.4694 17.9163 85.1163 16.6851C83.6862 15.3872 82.9729 13.7349 82.9729 11.7339C82.9729 11.4203 82.9905 11.1152 83.0263 10.8132C83.2278 9.05916 84.0153 7.63066 85.383 6.52424C86.674 5.48176 88.1717 4.95898 89.8772 4.95898C92.5653 4.95898 94.6557 6.2773 96.1479 8.917H94.1612C93.5807 8.17347 92.9385 7.62488 92.228 7.27624C91.5202 6.92798 90.7566 6.75346 89.9424 6.75346C88.5452 6.75346 87.352 7.2092 86.3571 8.12108C85.2973 9.09691 84.7671 10.3135 84.7671 11.7744C84.7671 13.2321 85.297 14.446 86.3571 15.4215C87.3579 16.3449 88.5421 16.8064 89.907 16.8064C91.6301 16.8064 93.0603 16.0398 94.1942 14.5038H96.219L96.2186 14.5042ZM109.479 18.3228H107.51L105.639 14.0889H100.103L98.2642 18.3228H96.2952L102.003 5.16856H103.78L109.479 18.3228ZM104.943 12.3988L102.901 7.59291L100.834 12.3988H104.943Z" fill="#150C21"/>
<path d="M54.5153 23.6465H51.6198V35.163H49.8256V23.6465H46.877V22.0088H54.5153V23.6465ZM64.6671 35.163H62.3874L57.6446 28.9051H59.2464C60.2323 28.9051 61.0347 28.7194 61.6565 28.3503C62.4055 27.903 62.7787 27.2296 62.7787 26.3262C62.7787 25.4987 62.4322 24.8365 61.7425 24.343C61.1207 23.9015 60.3689 23.6811 59.4923 23.6811H57.1831V35.163H55.3889V22.0088H59.0869C61.1651 22.0088 62.6514 22.4938 63.5485 23.4635C64.1848 24.1488 64.5253 25.0491 64.5729 26.1671C64.6145 27.1341 64.3007 28.0487 63.6373 28.9112C62.9743 29.7738 62.1125 30.2673 61.0496 30.3894L64.6675 35.1634L64.6671 35.163ZM77.7974 35.163H75.8284L73.9572 30.9291H68.4209L66.5823 35.163H64.6133L70.3216 22.0088H72.0982L77.7974 35.163ZM73.2616 29.2391L71.2187 24.4331L69.1523 29.2391H73.2616ZM80.4113 35.163H78.6171V22.0088H80.4113V35.163ZM93.1865 35.163H91.5463L84.3223 24.6077V35.163H82.528V22.0088H84.6447L91.3919 31.8992V22.0088H93.1861V35.163H93.1865ZM108.736 28.734C108.736 30.6764 107.966 32.2999 106.427 33.6124C105.02 34.8086 103.404 35.4069 101.577 35.4069C99.8009 35.4069 98.2404 34.7739 96.8995 33.5076C95.4694 32.1573 94.7561 30.4788 94.7561 28.4724C94.7561 26.7623 95.3955 25.2495 96.6748 23.9281C98.0456 22.5081 99.7153 21.7996 101.681 21.7996C103.665 21.7996 105.338 22.4703 106.697 23.809C108.056 25.1478 108.736 26.7881 108.736 28.734H108.736ZM106.942 28.6874C106.942 27.2647 106.433 26.0477 105.417 25.0372C104.402 24.0298 103.17 23.5243 101.725 23.5243C100.392 23.5243 99.2023 24.0094 98.1544 24.979C97.0856 25.9664 96.5499 27.1075 96.5499 28.4054C96.5499 30.1594 97.1599 31.5182 98.3826 32.4825C99.3536 33.246 100.452 33.6293 101.672 33.6293C102.98 33.6293 104.126 33.2576 105.109 32.5144C106.332 31.5968 106.942 30.3193 106.942 28.687V28.6874ZM121.585 22.0084L116.043 35.1626H114.474L109.008 22.0084H110.983L115.273 32.6104L119.587 22.0084H121.585H121.585ZM134.292 35.1626H132.323L130.452 30.9288H124.915L123.077 35.1626H121.108L126.816 22.0084H128.593L134.292 35.1626ZM129.756 29.2387L127.713 24.4328L125.647 29.2387H129.756ZM141.578 23.6457H138.682V35.1622H136.888V23.6457H133.939V22.008H141.578V23.6457ZM144.245 35.1622H142.451V22.008H144.245V35.1622ZM159.809 28.7332C159.809 30.6757 159.039 32.2991 157.5 33.6116C156.093 34.8078 154.477 35.4061 152.65 35.4061C150.874 35.4061 149.314 34.7731 147.973 33.5068C146.543 32.1565 145.829 30.478 145.829 28.4717C145.829 26.7616 146.469 25.2487 147.748 23.9273C149.119 22.5073 150.789 21.7988 152.754 21.7988C154.738 21.7988 156.411 22.4695 157.77 23.8083C159.129 25.147 159.809 26.7874 159.809 28.7332H159.809ZM158.015 28.6866C158.015 27.2639 157.506 26.0469 156.49 25.0364C155.475 24.029 154.243 23.5236 152.798 23.5236C151.466 23.5236 150.276 24.0086 149.228 24.9783C148.159 25.9656 147.623 27.1067 147.623 28.4046C147.623 30.1587 148.233 31.5174 149.456 32.4817C150.427 33.2452 151.525 33.6286 152.745 33.6286C154.053 33.6286 155.199 33.2568 156.182 32.5137C157.405 31.596 158.015 30.3185 158.015 28.6862V28.6866ZM172.001 35.1622H170.361L163.137 24.6069V35.1622H161.343V22.008H163.459L170.206 31.8984V22.008H172.001V35.1622H172.001Z" fill="#150C21"/>
<path d="M60.7418 48.1878C59.1727 50.8737 57.0709 52.2156 54.4357 52.2156C52.5912 52.2156 50.9926 51.5999 49.6395 50.3687C48.2094 49.0708 47.4961 47.4185 47.4961 45.4175C47.4961 45.1039 47.5138 44.7988 47.5495 44.4968C47.751 42.7427 48.5385 41.3143 49.9062 40.2078C51.1973 39.1654 52.6949 38.6426 54.4004 38.6426C57.0886 38.6426 59.179 39.9609 60.6711 42.6006H58.6844C58.1039 41.8571 57.4617 41.3085 56.7512 40.9598C56.0434 40.6116 55.2798 40.4371 54.4656 40.4371C53.0685 40.4371 51.8752 40.8928 50.8803 41.8047C49.8206 42.7805 49.2903 43.9971 49.2903 45.458C49.2903 46.9157 49.8202 48.1296 50.8803 49.1051C51.8811 50.0285 53.0653 50.49 54.4302 50.49C56.1534 50.49 57.5835 49.7234 58.7174 48.1874H60.7422L60.7418 48.1878ZM75.5096 45.5774C75.5096 47.5198 74.7397 49.1432 73.2004 50.4558C71.7939 51.6519 70.1776 52.2502 68.3508 52.2502C66.5746 52.2502 65.0141 51.6173 63.6731 50.351C62.243 49.0007 61.5297 47.3222 61.5297 45.3158C61.5297 43.6057 62.1692 42.0928 63.4485 40.7714C64.8193 39.3514 66.489 38.643 68.4549 38.643C70.4384 38.643 72.1112 39.3137 73.4703 40.6524C74.8293 41.9911 75.51 43.6315 75.51 45.5774H75.5096ZM73.7154 45.5308C73.7154 44.1081 73.2063 42.8911 72.1906 41.8806C71.1752 40.8732 69.9435 40.3677 68.4984 40.3677C67.1661 40.3677 65.976 40.8527 64.9281 41.8224C63.8593 42.8098 63.3236 43.9509 63.3236 45.2488C63.3236 47.0028 63.9336 48.3616 65.1563 49.3258C66.1272 50.0894 67.2258 50.4727 68.4454 50.4727C69.7538 50.4727 70.8995 50.1009 71.8826 49.3578C73.1054 48.4401 73.7154 47.1627 73.7154 45.5304V45.5308ZM87.7015 52.0064H86.0612L78.8372 41.451V52.0064H77.043V38.8522H79.1597L85.9069 48.7426V38.8522H87.7011V52.0064H87.7015ZM97.2288 48.2371C97.2288 49.2476 96.8914 50.1364 96.2134 50.903C95.4467 51.7771 94.4223 52.2156 93.1462 52.2156C91.8791 52.2156 90.8488 51.8145 90.0554 51.0105C89.2589 50.2092 88.8621 49.1841 88.8621 47.9413H90.7868C90.7868 48.6933 91.0001 49.2973 91.4294 49.7588C91.8673 50.235 92.4624 50.4731 93.2145 50.4731C93.8037 50.4731 94.3218 50.2581 94.766 49.8255C95.213 49.3956 95.4353 48.8905 95.4353 48.3126C95.4353 47.8392 95.3167 47.4239 95.0799 47.061C94.7601 46.5732 94.0822 46.1579 93.0402 45.8182C91.7554 45.3971 90.9262 45.0457 90.5562 44.7611C89.7361 44.1366 89.3244 43.2016 89.3244 41.953C89.3244 40.9829 89.7153 40.1789 90.4969 39.5456C91.2251 38.9446 92.0955 38.6426 93.1081 38.6426C94.2212 38.6426 95.151 39.0317 95.8968 39.8068C96.572 40.5183 96.9122 41.2877 96.9122 42.121V42.5567H95.1478C94.9467 41.1193 94.2656 40.402 93.1081 40.402C93.037 40.3789 92.9659 40.3669 92.8921 40.3669C92.4985 40.3669 92.1163 40.5153 91.7522 40.8115C91.3288 41.1513 91.1187 41.5635 91.1187 42.0455C91.1187 43.0444 91.5598 43.7328 92.4392 44.1073L95.1038 44.9406C96.1667 45.4052 96.8537 46.2211 97.1616 47.3853C97.1942 47.6292 97.2178 47.786 97.2295 47.853V48.2364L97.2288 48.2371ZM107.6 47.1627C107.6 48.783 107.123 50.0578 106.167 50.9812C105.323 51.803 104.263 52.2156 102.99 52.2156C101.741 52.2156 100.684 51.8207 99.8223 51.0336C98.86 50.1595 98.3804 48.998 98.3804 47.546V38.8518H100.175V47.479C100.175 48.33 100.42 49.0442 100.915 49.6221C101.444 50.2346 102.134 50.5424 102.99 50.5424C103.896 50.5424 104.609 50.1969 105.125 49.5057C105.578 48.8928 105.806 48.1235 105.806 47.1973V38.8518H107.6V47.1627H107.6ZM116.736 52.0064H109.648V38.8522H111.443V50.3514L116.736 50.3163V52.0064ZM124.093 40.4898H121.198V52.0064H119.404V40.4898H116.455V38.8522H124.093V40.4898ZM126.761 52.0064H124.967V38.8522H126.761V52.0064ZM139.536 52.0064H137.896L130.672 41.451V52.0064H128.877V38.8522H130.994L137.741 48.7426V38.8522H139.536V52.0064H139.536ZM155.227 45.6471C154.955 47.8191 154.096 49.4919 152.648 50.668C151.385 51.6989 149.854 52.2159 148.062 52.2159C146.153 52.2159 144.516 51.5537 143.151 50.2296C141.786 48.9055 141.105 47.3052 141.105 45.4325C141.105 43.3796 141.845 41.7041 143.325 40.4058C144.661 39.2297 146.218 38.6433 147.991 38.6433C149.46 38.6433 150.771 39.0005 151.926 39.712C153.078 40.4236 153.954 41.4314 154.549 42.735H152.53C152.086 41.9653 151.446 41.3732 150.614 40.9552C149.833 40.563 148.971 40.3685 148.03 40.3685C146.499 40.3685 145.232 40.9086 144.234 41.9919C143.32 42.982 142.864 44.1292 142.864 45.4298C142.864 46.908 143.438 48.145 144.589 49.1409C145.623 50.0412 146.774 50.4912 148.047 50.4912C148.971 50.4912 149.874 50.2647 150.751 49.8116C151.896 49.2253 152.654 48.3947 153.021 47.3202H146.005V45.6475H155.227V45.6471Z" fill="#150C21"/>
<path fill-rule="evenodd" clip-rule="evenodd" d="M0.00102484 19.0343C0.00102484 22.9076 1.76461 27.3348 4.43983 30.1305C7.216 33.0326 8.78477 36.6774 9.61943 40.5977C9.98393 42.3085 9.0495 43.1037 11.4482 43.2536C11.5598 43.1249 11.7004 43.0116 11.8693 42.923C12.2067 42.7446 24.5545 42.6992 26.1398 42.8159C26.6166 42.8502 26.9925 43.0363 27.2348 43.2967C28.139 43.2466 28.8928 42.992 28.9544 42.0385C29.0542 40.4994 29.2066 39.3371 29.6642 38.0628C30.4623 35.8391 31.3119 33.639 32.7754 31.727C34.145 29.9379 34.1627 30.379 35.9141 27.8272C36.704 26.676 37.8505 24.2817 38.1203 22.9237C38.7943 19.5328 38.761 17.9903 38.2551 15.3279C38.2134 15.554 38.1686 15.7894 38.1203 16.034C37.8501 17.392 36.704 19.7863 35.9141 20.9378C34.1627 23.4897 34.145 23.0478 32.7754 24.8369C31.3119 26.7492 30.4623 28.9498 29.6642 31.1726C29.2066 32.4474 29.0542 33.6097 28.9544 35.1484C28.8519 36.7213 26.868 36.3927 25.432 36.3812L12.5998 36.39C8.77495 36.41 10.033 35.6469 9.61943 33.7076C8.78516 29.7881 7.2164 26.1432 4.43983 23.2412C2.47593 21.1874 1.00301 18.2557 0.358455 15.3086C0.310536 15.5525 0.265759 15.7998 0.225302 16.0506C-0.0319687 17.6316 0.00141762 17.0087 0.00141762 19.0339L0.00102484 19.0343Z" fill="#150C21"/>
<path fill-rule="evenodd" clip-rule="evenodd" d="M11.871 45.6516C10.684 46.2765 10.8992 48.0999 12.5925 48.1372C14.7422 48.185 26.1368 48.2913 26.7393 47.9554C28.1183 47.1872 27.6112 45.6524 26.1415 45.5445C24.5566 45.4282 12.2084 45.474 11.8714 45.652L11.871 45.6516Z" fill="#150C21"/>
<path fill-rule="evenodd" clip-rule="evenodd" d="M16.6814 52.137C18.8715 52.137 24.1195 52.8867 23.3426 50.5459C22.9808 49.4561 21.709 49.6356 20.4144 49.6363C19.5157 49.6367 16.6409 49.4684 16.0424 49.7122C15.3063 50.012 14.6998 52.137 16.6818 52.137H16.6814Z" fill="#150C21"/>
<path fill-rule="evenodd" clip-rule="evenodd" d="M29.1161 24.7937L29.327 22.6386C29.1813 22.3489 29.1086 22.4964 28.9122 21.9525C28.7158 21.4077 28.8364 21.5391 28.8415 20.9801C28.8486 20.2524 28.2751 21.0448 29.0041 19.5308C29.4063 18.6956 30.3302 17.6327 31.0159 17.1361C32.2701 16.2285 32.3274 15.906 33.2465 14.9587C33.5462 14.6505 34.5616 12.3533 34.2069 11.8232C34.1896 11.8228 32.3325 12.3564 32.0757 12.3702C31.5611 12.3968 31.4095 12.6503 31.1051 12.5521C30.728 12.4303 30.9472 12.2115 30.3423 11.9611L30.6075 11.5886L28.5874 10.0245C28.3635 9.69086 28.2826 9.10028 28.0135 8.85218C27.5524 8.42725 27.4578 8.65994 27.358 7.80123C27.2873 7.19832 27.1655 7.0057 26.7189 6.70443C26.4 6.4887 26.5524 6.44131 26.4479 6.11809C26.4467 6.11462 24.8642 3.80815 24.8811 3.41559L25.5995 4.33671L25.8254 4.28201L25.6188 2.72754C25.0795 2.7965 24.29 2.58654 23.9459 2.67861C23.0237 2.92517 23.4302 2.96408 22.3618 2.71213C21.9887 2.62352 21.0994 2.46442 20.7989 2.31109C19.4391 1.61803 19.4772 2.12887 19.2357 3.21141L15.0695 1.52211L15.6288 0.927287L15.5432 0.183762L14.9025 0C14.7497 0.213426 12.0745 0.0966967 11.5179 0.373688C10.3129 0.974287 10.3966 0.87682 9.39811 0.871041C8.91656 0.868729 9.15144 0.652606 8.81169 0.557836C8.38356 0.73659 8.58348 1.26091 7.63885 1.61649C7.30812 1.74054 6.6895 2.3161 6.55909 2.70943C6.24605 3.65175 6.47347 3.40018 5.55986 3.93875C5.20596 4.14756 5.02686 4.03892 4.79315 4.29125C4.5457 4.55861 4.62701 4.56247 4.25229 4.81519C4.01466 4.97583 2.37088 7.05693 2.42901 7.32198C2.53388 7.802 2.82022 7.33778 2.58848 8.01851C2.45572 8.40799 2.66468 8.46501 2.50717 8.94194C2.21494 9.82377 2.32335 9.82223 1.76953 10.3882L1.88383 10.3858L1.88108 11.5655C2.24283 11.8209 2.29861 11.7053 2.4895 12.0193C2.64739 12.2786 2.77976 12.361 2.98401 12.5837C3.51662 13.1635 3.21968 13.5383 3.73815 13.8912C4.39055 14.3354 5.63056 15.6156 6.37488 15.3135C6.92791 15.0889 7.52769 14.9641 8.23941 15.1124C9.5835 15.3933 9.51634 14.506 11.4417 14.4691C12.3389 14.4525 12.1248 14.9109 12.514 15.4811L13.866 15.3178C14.7658 16.2693 14.3687 15.7153 14.2768 16.8749C14.2195 17.6053 13.8114 17.9355 14.2328 18.533C14.9882 19.6044 15.6233 19.6371 16.0518 21.3742C16.1296 21.6901 16.401 23.1278 16.2769 23.3829C16.1677 23.6059 15.9304 23.661 15.7745 24.0513C15.659 24.3394 15.6492 24.7066 15.5636 25.0028C15.1641 26.3824 17.0605 24.3749 17.5243 25.4894C17.6174 25.7136 17.8378 27.0658 17.912 27.4102C18.0621 28.1083 18.5224 28.1526 18.8237 28.8353C18.967 29.1593 19.0581 29.35 19.231 29.593C19.6194 30.1393 19.3032 30.0846 19.3036 30.394C19.304 31.1483 20.1901 31.0851 20.8041 30.9745C22.9035 30.5951 20.9352 30.1805 22.4624 28.7809C22.8968 28.3834 22.5299 30.5319 22.8296 30.3154C23.526 29.813 23.2632 29.1427 23.4168 28.7359C24.0967 28.3984 24.4785 28.6269 24.6509 27.8363C24.8772 26.7989 26.1569 27.7392 26.1353 27.1583L29.1161 24.7925V24.7937Z" fill="#150C21"/>
<path fill-rule="evenodd" clip-rule="evenodd" d="M24.5998 15.3301C24.9129 15.3301 25.1689 15.5813 25.1689 15.8883V36.3614C25.1689 36.6688 24.9129 36.9196 24.5998 36.9196C24.2868 36.9196 24.0303 36.6688 24.0303 36.3614V15.8883C24.0303 15.5809 24.2864 15.3301 24.5998 15.3301Z" fill="#150C21"/>
<path fill-rule="evenodd" clip-rule="evenodd" d="M14.0324 15.3301C14.3455 15.3301 14.6012 15.5813 14.6012 15.8883V36.3614C14.6012 36.6688 14.3455 36.9196 14.0324 36.9196C13.719 36.9196 13.4629 36.6688 13.4629 36.3614V15.8883C13.4629 15.5809 13.719 15.3301 14.0324 15.3301Z" fill="#150C21"/>
</svg>
